<svg xmlns="http://www.w3.org/2000/svg" viewBox="0 0 48 48" width="24" height="24">
    <path fill="#4285F4" d="M23.49 12.3c0-.72-.06-1.38-.17-2H12v3.2h6.34c-.27 1.42-1.07 2.61-2.24 3.15v2.62h3.62c2.13-1.96 3.34-4.87 3.34-8.01z"/>
    <path fill="#34A853" d="M12 6.29c1.16 0 2.15.4 2.94 1.08l2.2-2.2C15.26 3.42 13.43 2.5 12 2.5c-3.29 0-5.99 2.73-5.99 6.06s2.7 6.06 5.99 6.06c.88 0 1.73-.26 2.47-.72l2.28 2.28c-1.26.91-2.83 1.44-4.75 1.44-3.31 0-6.06-2.73-6.06-6.06s2.75-6.06 6.06-6.06z"/>
    <path fill="#FBBC05" d="M5.99 12.29c-.28-.83-.44-1.72-.44-2.66s.16-1.83.44-2.66V5.29H3.07C2.43 6.6 2 7.97 2 9.33c0 1.36.43 2.73 1.07 3.94h2.87l1.05-1.63z"/>
    <path fill="#EA4335" d="M12 2.5c-1.43 0-2.75.5-3.77 1.34L6.05 1.28C7.86.43 9.85 0 12 0c3.31 0 6.06 2.73 6.06 6.06 0 1.3-.43 2.5-1.17 3.46l2.28 2.28C20.2 9.89 22 6.62 22 3.06 22 1.37 20.6 0 19 0c-1.43 0-2.75.5-3.77 1.34L12 2.5z"/>
</svg>
